<?xml version="1.0" encoding="utf-8"?>
<svg id="master-artboard" viewBox="0 0 1400 980" version="1.1" xmlns="http://www.w3.org/2000/svg" x="0px" y="0px" style="enable-background:new 0 0 336 235.2;" width="1400px" height="980px"><g transform="matrix(0.9999999403953552, 0, 0, -0.9999999403953552, 0.000033093361821556755, 979.999969287973)"><g transform="matrix(49, 0, 0, 49, 210.00000000000006, -2.842170943040401e-14)"><desc>confirm</desc><path d="M 17.64 7.609999999999999 C 17.87 8.36 18 9.17 18 10 C 18 14.42 14.42 18 10 18 C 5.58 18 2 14.42 2 10 C 1.9973736157638031 3.9414999875104257 8.469812668938676 0.07997702873333211 13.8 2.96 L 15.260000000000002 1.5 C 13.73 0.56 11.93 0 10 0 C 4.48 0 0 4.48 0 10 C 0 15.52 4.48 20 10 20 C 15.52 20 20 15.52 20 10 C 20 8.6 19.71 7.27 19.19 6.05 L 17.64 7.609999999999999 Z" fill-rule="evenodd"/></g><path d="M 684.0347290039062 395.8187255859375 L 578.9382934570312 291.0928039550781 L 715.0281372070312 290.46807861328125 L 796.2811279296875 371.5265808105469 L 1111.2413330078125 59.91709899902344 L 1248.2406005859375 60.26115036010742 L 1176.0850830078125 132.29991149902344 L 954.9429321289062 353.442138671875 L 833.975830078125 474.55877685546875 L 796.7218017578125 512.1087036132812 C 796.7218017578125 512.1087036132812 776.1799706250019 490.9670614932284 766.1253662109375 481.2600402832031 C 737.7109726993921 453.827919721527 684.0347290039062 395.8187255859375 684.0347290039062 395.8187255859375 Z" style="fill: rgb(0, 0, 0); fill-opacity: 1; stroke: rgb(0, 0, 0); stroke-opacity: 1; stroke-width: 0; paint-order: fill;"/></g><path d="M 830.7841186523438 534.79931640625" style="fill: rgb(0, 0, 0); fill-opacity: 1; stroke: rgb(0, 0, 0); stroke-opacity: 1; stroke-width: 0; paint-order: fill;"/><path d="M 810.140625 454.9560241699219" style="fill: rgb(0, 0, 0); fill-opacity: 1; stroke: rgb(0, 0, 0); stroke-opacity: 1; stroke-width: 0; paint-order: fill;"/></svg>